<svg width="512" height="393" viewBox="0 0 512 393" fill="none" xmlns="http://www.w3.org/2000/svg">
<g opacity="0.3" clip-path="url(#clip0_2_7)">
<path d="M120 292C265 98 383 291.667 386 292" stroke="black"/>
<path d="M386 109C241 303 123 109.333 120 109" stroke="black"/>
<path d="M151 98.4082C153.573 98.4082 155.659 96.4346 155.659 94.0001C155.659 91.5655 153.573 89.5919 151 89.5919C148.427 89.5919 146.341 91.5655 146.341 94.0001C146.341 96.4346 148.427 98.4082 151 98.4082Z" fill="#61DAFB"/>
<path d="M151 103.031C164.807 103.031 176 98.9879 176 94C176 89.0122 164.807 84.9688 151 84.9688C137.193 84.9688 126 89.0122 126 94C126 98.9879 137.193 103.031 151 103.031Z" stroke="#61DAFB" stroke-width="1.3"/>
<path d="M142.733 98.5156C149.637 109.829 158.934 116.978 163.5 114.484C168.065 111.99 166.17 100.798 159.267 89.4844C152.363 78.1712 143.065 71.0217 138.5 73.5156C133.934 76.0096 135.83 87.2024 142.733 98.5156Z" stroke="#61DAFB" stroke-width="1.3"/>
<path d="M142.733 89.4844C135.83 100.798 133.934 111.99 138.5 114.484C143.065 116.978 152.363 109.829 159.267 98.5156C166.17 87.2024 168.066 76.0095 163.5 73.5156C158.934 71.0217 149.637 78.1712 142.733 89.4844Z" stroke="#61DAFB" stroke-width="1.3"/>
<path d="M253.925 31.5441C255.181 30.8203 256.819 30.817 258.074 31.5441C264.392 35.1358 270.712 38.7219 277.029 42.3158C278.217 42.9891 279.012 44.3194 279 45.6968V67.306C279.009 68.7403 278.135 70.1025 276.882 70.7605C270.585 74.3324 264.291 77.9087 257.995 81.4806C256.712 82.2186 255.042 82.1618 253.799 81.3633C251.911 80.2622 250.02 79.1666 248.132 78.0666C247.746 77.8352 247.311 77.651 247.039 77.2746C247.28 76.948 247.71 76.9073 248.06 76.7648C248.848 76.5126 249.572 76.108 250.296 75.7153C250.479 75.5892 250.702 75.6375 250.878 75.7503C252.492 76.6816 254.092 77.6399 255.712 78.5623C256.058 78.763 256.408 78.4965 256.703 78.3308C262.882 74.8171 269.07 71.3165 275.248 67.8016C275.477 67.6908 275.603 67.4464 275.585 67.1941C275.589 60.0657 275.586 52.936 275.587 45.8076C275.613 45.5213 275.448 45.2582 275.191 45.141C268.916 41.5854 262.644 38.0244 256.37 34.4679C256.261 34.3927 256.132 34.3524 256 34.3522C255.868 34.352 255.739 34.392 255.63 34.4668C249.356 38.0244 243.085 41.5887 236.811 45.1441C236.555 45.2614 236.383 45.5203 236.413 45.8076C236.414 52.936 236.413 60.0657 236.413 67.1952C236.402 67.3183 236.429 67.4417 236.49 67.549C236.551 67.6563 236.643 67.7422 236.754 67.7951C238.429 68.7503 240.105 69.6989 241.78 70.6508C242.724 71.1619 243.883 71.4656 244.923 71.074C245.841 70.7429 246.484 69.8008 246.467 68.8204C246.475 61.7337 246.462 54.6458 246.473 47.5601C246.45 47.2455 246.747 46.9855 247.051 47.0151C247.855 47.0097 248.661 47.0042 249.465 47.0173C249.801 47.0097 250.032 47.3484 249.991 47.6654C249.987 54.7971 249.999 61.9289 249.985 69.0606C249.987 70.9612 249.211 73.0294 247.464 73.9594C245.311 75.0813 242.65 74.8434 240.524 73.7676C238.682 72.843 236.925 71.7519 235.117 70.7614C233.86 70.107 232.991 68.7394 233 67.3061V45.6968C232.987 44.2909 233.813 42.9365 235.038 42.2729C241.335 38.6981 247.63 35.1206 253.925 31.5441Z" fill="#8CC84B"/>
<path d="M259.417 46.5129C262.163 46.3351 265.103 46.4075 267.574 47.7685C269.487 48.8115 270.548 51.0004 270.582 53.1389C270.528 53.4273 270.228 53.5864 269.955 53.5666C269.158 53.5655 268.361 53.5775 267.564 53.5612C267.226 53.5742 267.03 53.2607 266.988 52.9601C266.759 51.937 266.204 50.9236 265.247 50.4301C263.777 49.6899 262.074 49.7272 260.471 49.7426C259.302 49.8051 258.044 49.907 257.053 50.599C256.292 51.1232 256.061 52.1814 256.333 53.0337C256.589 53.6456 257.291 53.8431 257.865 54.0251C261.174 54.8959 264.681 54.8092 267.927 55.9552C269.271 56.4223 270.586 57.3305 271.046 58.7462C271.648 60.6436 271.384 62.9115 270.042 64.4348C268.954 65.6883 267.369 66.3705 265.789 66.741C263.686 67.2127 261.504 67.2247 259.368 67.0153C257.36 66.785 255.271 66.2542 253.721 64.8778C252.395 63.7198 251.748 61.9156 251.812 60.1743C251.827 59.8802 252.118 59.6751 252.398 59.6993C253.201 59.6927 254.003 59.6906 254.805 59.7004C255.126 59.6773 255.363 59.9559 255.38 60.2598C255.528 61.2347 255.892 62.2578 256.737 62.8358C258.368 63.8942 260.414 63.8217 262.281 63.8513C263.828 63.7823 265.564 63.7614 266.826 62.7328C267.492 62.1461 267.69 61.1646 267.51 60.3201C267.315 59.6072 266.573 59.275 265.937 59.0577C262.67 58.018 259.124 58.3953 255.889 57.2195C254.575 56.7526 253.305 55.8696 252.801 54.512C252.097 52.5907 252.419 50.2141 253.902 48.7423C255.347 47.2783 257.433 46.7145 259.417 46.5127V46.5129Z" fill="#8CC84B"/>
<path d="M362.34 68.1393L363.706 70.6955C364.013 71.1672 364.346 71.5847 364.738 71.9735C365.888 73.1039 366.959 74.3104 367.945 75.5847C370.26 78.6126 371.822 81.9752 372.937 85.6118C373.606 87.8334 373.969 90.1122 373.996 92.4166C374.108 99.3059 371.737 105.221 366.956 110.138C366.178 110.917 365.338 111.633 364.444 112.276C363.97 112.276 363.746 111.915 363.551 111.582C363.196 110.964 362.959 110.286 362.853 109.582C362.685 108.748 362.575 107.915 362.629 107.054V106.665C362.591 106.582 362.173 68.3353 362.34 68.1393Z" fill="#599636"/>
<path d="M362.34 68.0548C362.284 67.9433 362.228 68.0277 362.172 68.0819C362.199 68.6397 362.004 69.1369 361.698 69.6118C361.362 70.0835 360.917 70.4453 360.471 70.8341C357.991 72.9728 356.039 75.5561 354.475 78.4453C352.395 82.3338 351.323 86.5011 351.019 90.8884C350.88 92.4709 351.522 98.0549 352.023 99.6661C353.389 103.943 355.844 107.527 359.023 110.638C359.804 111.387 360.639 112.082 361.503 112.75C361.754 112.75 361.781 112.527 361.839 112.361C361.949 112.006 362.033 111.644 362.09 111.277L362.65 107.112L362.34 68.0548Z" fill="#6CAC48"/>
<path d="M363.706 113.969C363.762 113.331 364.069 112.802 364.404 112.275C364.068 112.136 363.818 111.861 363.623 111.553C363.455 111.262 363.315 110.955 363.207 110.637C362.817 109.47 362.733 108.246 362.621 107.054V106.332C362.482 106.444 362.453 107.387 362.453 107.528C362.372 108.787 362.204 110.04 361.951 111.277C361.868 111.778 361.812 112.277 361.503 112.721C361.503 112.777 361.503 112.833 361.53 112.916C362.033 114.388 362.17 115.888 362.255 117.416V117.974C362.255 118.64 362.228 118.5 362.783 118.723C363.007 118.806 363.257 118.834 363.481 119C363.649 119 363.676 118.861 363.676 118.75L363.593 117.833V115.277C363.565 114.831 363.649 114.388 363.705 113.971L363.706 113.969Z" fill="#C2BFBF"/>
<path d="M411 181C404.333 181 400.167 184.333 398.5 191C401 187.666 403.917 186.417 407.25 187.25C409.152 187.725 410.511 189.105 412.016 190.632C414.467 193.12 417.304 196 423.5 196C430.167 196 434.334 192.666 436 185.999C433.5 189.333 430.584 190.583 427.25 189.75C425.349 189.275 423.989 187.894 422.484 186.367C420.033 183.879 417.196 181 411 181ZM398.5 196C391.833 196 387.666 199.333 386 206C388.5 202.666 391.416 201.416 394.75 202.25C396.651 202.726 398.011 204.106 399.516 205.632C401.967 208.12 404.804 211 411 211C417.667 211 421.833 207.667 423.5 201C421 204.333 418.083 205.583 414.75 204.75C412.848 204.275 411.489 202.894 409.984 201.368C407.533 198.88 404.696 196 398.5 196Z" fill="#06B6D4"/>
<path fill-rule="evenodd" clip-rule="evenodd" d="M87.7265 219L77 176L120 188.259L87.7265 219Z" stroke="white" stroke-width="1.5" stroke-miterlimit="10" stroke-linejoin="round"/>
<path fill-rule="evenodd" clip-rule="evenodd" d="M98.492 182.131L103.851 203.637L82.3634 197.506L98.492 182.131Z" stroke="white" stroke-width="1.5" stroke-miterlimit="10" stroke-linejoin="round"/>
<path fill-rule="evenodd" clip-rule="evenodd" d="M93.1602 200.423L90.4982 189.739L101.174 192.774L93.1602 200.423Z" stroke="white" stroke-width="1.5" stroke-miterlimit="10" stroke-linejoin="round"/>
<path fill-rule="evenodd" clip-rule="evenodd" d="M87.8353 179.068L90.4972 189.752L79.8216 186.717L87.8353 179.068Z" stroke="white" stroke-width="1.5" stroke-miterlimit="10" stroke-linejoin="round"/>
<path fill-rule="evenodd" clip-rule="evenodd" d="M109.186 185.158L111.848 195.842L101.172 192.807L109.186 185.158Z" stroke="white" stroke-width="1.5" stroke-miterlimit="10" stroke-linejoin="round"/>
<path fill-rule="evenodd" clip-rule="evenodd" d="M93.1614 200.43L95.8234 211.114L85.1477 208.079L93.1614 200.43Z" stroke="white" stroke-width="1.5" stroke-miterlimit="10" stroke-linejoin="round"/>
<path d="M264.487 348.332C266.111 348.163 267.343 346.756 267.287 345.067C267.231 343.378 265.831 342.027 264.151 342.027H264.039C262.304 342.083 260.96 343.547 261.016 345.292C261.072 346.137 261.408 346.869 261.912 347.375C260.008 351.147 257.096 353.906 252.729 356.214C249.761 357.791 246.682 358.354 243.602 357.96C241.083 357.622 239.123 356.496 237.891 354.638C236.099 351.879 235.932 348.895 237.443 345.911C238.507 343.772 240.187 342.196 241.251 341.407C241.027 340.676 240.691 339.437 240.523 338.536C232.404 344.448 233.244 352.442 235.708 356.214C237.555 359.03 241.307 360.775 245.45 360.775C246.57 360.775 247.69 360.662 248.81 360.381C255.977 358.973 261.408 354.694 264.487 348.332ZM274.342 341.351C270.087 336.34 263.815 333.582 256.648 333.582H255.753C255.249 332.568 254.185 331.893 253.009 331.893H252.897C251.161 331.949 249.818 333.413 249.874 335.158C249.93 336.847 251.329 338.198 253.009 338.198H253.121C254.353 338.142 255.417 337.354 255.865 336.284H256.872C261.128 336.284 265.159 337.523 268.799 339.944C271.598 341.802 273.614 344.223 274.734 347.15C275.686 349.515 275.63 351.823 274.622 353.794C273.054 356.777 270.423 358.41 266.951 358.41C264.711 358.41 262.584 357.734 261.464 357.228C260.848 357.791 259.728 358.692 258.944 359.255C261.352 360.381 263.815 361 266.167 361C271.542 361 275.518 358.016 277.03 355.032C278.653 351.767 278.541 346.137 274.342 341.351ZM245.898 349.289C245.954 350.978 247.354 352.33 249.034 352.33H249.146C250.881 352.273 252.225 350.809 252.169 349.064C252.113 347.375 250.713 346.024 249.034 346.024H248.922C248.81 346.024 248.642 346.024 248.53 346.08C246.234 342.252 245.282 338.086 245.618 333.582C245.842 330.204 246.962 327.276 248.922 324.855C250.545 322.772 253.681 321.758 255.809 321.702C261.744 321.59 264.263 329.021 264.431 332.005C265.159 332.174 266.391 332.568 267.231 332.85C266.559 323.729 260.96 319 255.585 319C250.545 319 245.898 322.66 244.05 328.064C241.475 335.271 243.154 342.196 246.29 347.657C246.01 348.051 245.842 348.67 245.898 349.29V349.289Z" fill="#764ABC"/>
<path fill-rule="evenodd" clip-rule="evenodd" d="M369.536 316.857L368.711 318.344C368.462 318.792 368.002 319.068 367.505 319.068H361.186C360.688 319.068 360.228 318.792 359.98 318.344L359.155 316.857H369.536ZM371.845 312.692L370.39 315.315H358.3L356.846 312.692H371.845ZM370.444 308.62L371.847 311.151H356.844L358.247 308.62H370.444ZM367.505 304.771C368.002 304.771 368.462 305.047 368.711 305.495L369.589 307.079H359.101L359.98 305.495C360.228 305.047 360.688 304.771 361.186 304.771H367.505Z" fill="#00435B"/>
<path d="M351.99 304.081C351.29 300.556 351.14 297.852 351.592 295.889C351.862 294.722 352.353 293.769 353.102 293.082C353.891 292.356 354.89 292 356.012 292C357.862 292 359.808 292.877 361.887 294.542C362.735 295.221 363.616 296.04 364.53 296.999C364.603 296.901 364.685 296.81 364.776 296.725C367.361 294.333 369.537 292.847 371.398 292.274C372.504 291.933 373.543 291.901 374.489 292.231C375.488 292.58 376.284 293.302 376.845 294.312C377.772 295.98 378.016 298.172 377.671 300.878C377.53 301.981 377.289 303.183 376.949 304.485C377.077 304.501 377.206 304.53 377.333 304.574C380.612 305.703 382.934 306.916 384.34 308.303C385.176 309.128 385.723 310.047 385.92 311.064C386.128 312.137 385.925 313.214 385.364 314.224C384.44 315.889 382.739 317.203 380.317 318.243C379.344 318.661 378.243 319.039 377.014 319.38C377.07 319.511 377.113 319.651 377.142 319.798C377.842 323.322 377.993 326.026 377.54 327.989C377.271 329.157 376.779 330.109 376.031 330.796C375.241 331.522 374.243 331.878 373.121 331.878C371.27 331.878 369.325 331.001 367.245 329.336C366.388 328.65 365.498 327.821 364.574 326.849C364.479 327.004 364.362 327.147 364.224 327.275C361.639 329.667 359.463 331.153 357.602 331.726C356.496 332.067 355.457 332.099 354.511 331.769C353.512 331.42 352.716 330.698 352.155 329.688C351.228 328.02 350.984 325.828 351.329 323.122C351.475 321.979 351.728 320.73 352.088 319.374C351.948 319.359 351.806 319.328 351.667 319.28C348.388 318.152 346.066 316.938 344.66 315.551C343.824 314.726 343.277 313.807 343.08 312.79C342.872 311.717 343.075 310.64 343.636 309.63C344.56 307.965 346.261 306.651 348.683 305.611C349.685 305.181 350.822 304.792 352.097 304.444C352.051 304.329 352.015 304.207 351.99 304.081Z" fill="#002B3B"/>
<path fill-rule="evenodd" clip-rule="evenodd" d="M360.411 302.958C362.111 302.817 363.863 302.755 365.667 302.772C366.009 302.775 366.288 302.49 366.291 302.135C366.293 301.985 366.244 301.84 366.153 301.724C362.047 296.473 358.665 293.847 356.009 293.847C353.267 293.847 352.484 296.987 353.662 303.266C353.727 303.61 354.045 303.837 354.377 303.776C356.474 303.39 358.485 303.117 360.411 302.958Z" fill="#FF4154"/>
<path fill-rule="evenodd" clip-rule="evenodd" d="M369.953 303.822C370.935 305.291 371.877 306.847 372.78 308.489C372.949 308.798 373.327 308.905 373.624 308.729C373.748 308.655 373.844 308.539 373.895 308.4C376.218 302.072 376.706 297.708 375.36 295.308C373.97 292.831 370.942 293.688 366.277 297.877C366.02 298.107 365.99 298.509 366.209 298.778C367.595 300.48 368.843 302.161 369.953 303.822Z" fill="#FF4154"/>
<path fill-rule="evenodd" clip-rule="evenodd" d="M374.073 312.662C373.338 314.266 372.513 315.878 371.596 317.498C371.423 317.804 371.521 318.197 371.816 318.377C371.94 318.453 372.087 318.482 372.23 318.457C378.631 317.364 382.497 315.619 383.826 313.223C385.2 310.748 382.991 308.48 377.201 306.418C376.882 306.304 376.534 306.477 376.419 306.806C375.688 308.892 374.906 310.844 374.073 312.662Z" fill="#FF4154"/>
<path fill-rule="evenodd" clip-rule="evenodd" d="M368.821 320.962C367.121 321.102 365.369 321.164 363.565 321.148C363.223 321.145 362.944 321.43 362.941 321.785C362.939 321.934 362.988 322.08 363.079 322.196C367.185 327.447 370.567 330.072 373.223 330.072C375.965 330.072 376.748 326.933 375.57 320.654C375.505 320.31 375.187 320.083 374.855 320.144C372.758 320.53 370.747 320.803 368.821 320.962Z" fill="#FF4154"/>
<path fill-rule="evenodd" clip-rule="evenodd" d="M359.047 320.178C358.065 318.709 357.123 317.153 356.22 315.511C356.051 315.202 355.673 315.095 355.376 315.271C355.252 315.345 355.156 315.461 355.105 315.6C352.782 321.928 352.294 326.292 353.64 328.692C355.03 331.169 358.058 330.312 362.723 326.123C362.98 325.893 363.01 325.491 362.791 325.222C361.405 323.52 360.157 321.839 359.047 320.178Z" fill="#FF4154"/>
<path fill-rule="evenodd" clip-rule="evenodd" d="M354.927 311.097C355.662 309.493 356.487 307.881 357.404 306.261C357.577 305.956 357.479 305.562 357.184 305.382C357.06 305.306 356.913 305.277 356.77 305.302C350.369 306.395 346.503 308.14 345.174 310.536C343.8 313.011 346.009 315.279 351.799 317.341C352.118 317.455 352.466 317.282 352.581 316.953C353.312 314.867 354.094 312.915 354.927 311.097Z" fill="#FF4154"/>
<path fill-rule="evenodd" clip-rule="evenodd" d="M361.694 304.851H366.998C367.773 304.851 368.49 305.282 368.876 305.981L371.539 310.8C371.922 311.493 371.922 312.346 371.539 313.039L368.876 317.858C368.49 318.557 367.773 318.988 366.998 318.988H361.694C360.918 318.988 360.202 318.557 359.816 317.858L357.153 313.039C356.77 312.346 356.77 311.493 357.153 310.8L359.816 305.981C360.202 305.282 360.918 304.851 361.694 304.851ZM366.189 306.306C366.965 306.306 367.682 306.737 368.068 307.437L369.925 310.801C370.308 311.494 370.308 312.345 369.925 313.038L368.068 316.403C367.682 317.102 366.965 317.533 366.189 317.533H362.502C361.726 317.533 361.01 317.102 360.624 316.403L358.767 313.038C358.384 312.345 358.384 311.494 358.767 310.801L360.624 307.437C361.01 306.737 361.726 306.306 362.502 306.306H366.189ZM365.318 307.897H363.374C362.598 307.897 361.882 308.327 361.496 309.025L360.515 310.799C360.131 311.493 360.131 312.346 360.515 313.04L361.496 314.814C361.882 315.512 362.598 315.942 363.374 315.942H365.318C366.093 315.942 366.81 315.512 367.196 314.814L368.177 313.04C368.561 312.346 368.561 311.493 368.177 310.799L367.196 309.025C366.81 308.327 366.093 307.897 365.318 307.897ZM364.479 309.42C365.254 309.42 365.97 309.849 366.356 310.547L366.495 310.798C366.88 311.492 366.88 312.347 366.495 313.042L366.356 313.293C365.97 313.99 365.254 314.42 364.479 314.42H364.213C363.438 314.42 362.722 313.99 362.336 313.293L362.197 313.042C361.812 312.347 361.812 311.492 362.197 310.798L362.336 310.547C362.722 309.849 363.438 309.42 364.213 309.42H364.479ZM364.346 310.92C364.001 310.92 363.683 311.11 363.511 311.42C363.339 311.729 363.339 312.11 363.511 312.42C363.683 312.729 364.001 312.92 364.346 312.92C364.69 312.92 365.008 312.729 365.18 312.42C365.353 312.11 365.353 311.729 365.18 311.42C365.008 311.11 364.69 310.92 364.346 310.92ZM356.534 311.92H358.268H356.534Z" fill="#FFD94C"/>
<path d="M136.318 311.043C133.834 311.043 131.81 309.017 131.81 306.533C131.81 304.048 133.834 302.022 136.318 302.022C138.802 302.022 140.827 304.048 140.827 306.533C140.827 309.015 138.8 311.043 136.318 311.043ZM125.493 319.999C123.012 319.994 120.993 317.959 121 315.474C121.001 314.283 121.478 313.14 122.327 312.298C123.175 311.455 124.325 310.98 125.525 310.978C128.007 310.983 130.026 313.018 130.017 315.505C130.015 316.696 129.537 317.837 128.689 318.68C127.841 319.522 126.692 319.997 125.493 319.999ZM166.525 319.999C165.326 320.002 164.174 319.532 163.322 318.693C162.47 317.854 161.988 316.714 161.981 315.522C161.968 313.034 163.979 310.992 166.457 310.98C167.657 310.978 168.808 311.447 169.659 312.286C170.51 313.125 170.992 314.264 171 315.455C171.014 317.941 169.002 319.985 166.525 319.999Z" fill="white"/>
<path d="M158.075 302.284C156.849 301.905 155.539 301.747 154.254 301.608C152.267 301.395 151.475 300.625 151.139 298.648C150.95 297.544 150.685 296.412 150.205 295.41C149.288 293.502 147.14 292.647 144.983 293.135C143.16 293.548 141.647 295.349 141.563 297.198C141.466 299.307 142.682 301.108 144.769 301.729C145.761 302.025 146.815 302.172 147.85 302.249C149.749 302.385 150.383 302.948 150.896 303.807C151.222 304.35 151.534 304.884 151.534 306.499C151.534 308.115 151.218 308.65 150.896 309.191C150.383 310.05 149.749 310.61 147.85 310.751C146.813 310.825 145.759 310.974 144.769 311.271C142.682 311.893 141.466 313.691 141.563 315.803C141.647 317.65 143.162 319.451 144.983 319.865C147.14 320.354 149.288 319.497 150.205 317.59C150.687 316.589 150.95 315.455 151.139 314.351C151.477 312.374 152.269 311.606 154.254 311.391C155.541 311.253 156.849 311.093 158.075 310.713C159.935 310.137 161.054 308.414 161.054 306.499C161.054 304.586 159.935 302.865 158.075 302.284Z" fill="#F44250"/>
<path d="M283 169H229V223H283V169Z" fill="#F7DF1E"/>
<path d="M265.274 211.188C266.362 212.964 267.777 214.269 270.28 214.269C272.383 214.269 273.726 213.218 273.726 211.766C273.726 210.026 272.346 209.41 270.031 208.398L268.763 207.853C265.101 206.293 262.669 204.339 262.669 200.208C262.669 196.402 265.568 193.505 270.1 193.505C273.326 193.505 275.646 194.628 277.317 197.568L273.366 200.105C272.496 198.545 271.557 197.93 270.1 197.93C268.614 197.93 267.672 198.873 267.672 200.105C267.672 201.627 268.615 202.243 270.792 203.186L272.06 203.73C276.372 205.579 278.806 207.463 278.806 211.701C278.806 216.27 275.217 218.773 270.397 218.773C265.685 218.773 262.64 216.527 261.151 213.583L265.274 211.188ZM247.349 211.627C248.146 213.042 248.871 214.237 250.615 214.237C252.282 214.237 253.333 213.585 253.333 211.049V193.795H258.408V211.117C258.408 216.372 255.327 218.763 250.831 218.763C246.768 218.763 244.415 216.661 243.218 214.128L247.349 211.627Z" fill="black"/>
</g>
<defs>
<clipPath id="clip0_2_7">
<rect width="512" height="393" fill="white"/>
</clipPath>
</defs>
</svg>
